<svg width="101" height="36" viewBox="0 0 101 36" fill="none" xmlns="http://www.w3.org/2000/svg">
<path d="M11.9837 35.2955C9.03448 35.1795 6.62159 34.3805 4.73491 32.8965C4.37485 32.613 3.51685 31.763 3.229 31.4045C2.46392 30.452 1.94378 29.525 1.59684 28.4965C0.529271 25.3305 1.07871 21.176 3.1684 16.6165C4.95762 12.713 7.71845 8.84151 12.5351 3.47951C13.2447 2.69051 15.3576 0.382996 15.3712 0.382996C15.3763 0.382996 15.2611 0.580499 15.1162 0.820999C13.8638 2.898 12.7922 5.34449 12.2084 7.46249C11.2706 10.861 11.3837 13.7775 12.5397 16.039C13.3371 17.597 14.7041 18.9465 16.2413 19.6925C18.9325 20.998 22.8725 21.106 27.6841 20.0085C28.0154 19.9325 44.4309 15.618 64.1633 10.4205C83.8957 5.2225 100.043 0.973001 100.046 0.976501C100.051 0.981001 54.2017 20.406 30.4005 30.4835C26.6312 32.079 25.6232 32.482 23.8512 33.098C19.3213 34.673 15.2637 35.4245 11.9837 35.2955Z" fill="#131212"/>
</svg>
